<svg width="560" height="340" viewBox="0 0 560 340" xmlns="http://www.w3.org/2000/svg"><line x1="30" y1="50" x2="530" y2="50" stroke="#8B1A1A" stroke-width="2" opacity="0.4" /><text x="15" y="54" text-anchor="middle" font-size="12" fill="#8B1A1A" font-weight="bold">线1</text><rect x="50" y="20" width="50" height="60" rx="6" fill="#FFF5F0" stroke="#8B1A1A" stroke-width="2" /><text x="75" y="48" text-anchor="middle" font-size="22" font-weight="bold" fill="#1A7F5C">1</text><text x="75" y="66" text-anchor="middle" font-size="12" fill="#1A7F5C">万</text><rect x="260" y="20" width="50" height="60" rx="6" fill="#FFF5F0" stroke="#8B1A1A" stroke-width="2" /><text x="285" y="48" text-anchor="middle" font-size="22" font-weight="bold" fill="#1A7F5C">4</text><text x="285" y="66" text-anchor="middle" font-size="12" fill="#1A7F5C">万</text><rect x="470" y="20" width="50" height="60" rx="6" fill="#FFF5F0" stroke="#8B1A1A" stroke-width="2" /><text x="495" y="48" text-anchor="middle" font-size="22" font-weight="bold" fill="#1A7F5C">7</text><text x="495" y="66" text-anchor="middle" font-size="12" fill="#1A7F5C">万</text><text x="200" y="54" text-anchor="middle" font-size="12" fill="#8B1A1A" opacity="0.6">← 同线 →</text><text x="400" y="54" text-anchor="middle" font-size="12" fill="#8B1A1A" opacity="0.6">← 同线 →</text><line x1="30" y1="160" x2="530" y2="160" stroke="#C9A227" stroke-width="2" opacity="0.4" /><text x="15" y="164" text-anchor="middle" font-size="12" fill="#C9A227" font-weight="bold">线2</text><rect x="130" y="130" width="50" height="60" rx="6" fill="#FFF8E8" stroke="#C9A227" stroke-width="2" /><text x="155" y="158" text-anchor="middle" font-size="22" font-weight="bold" fill="#1A7F5C">2</text><text x="155" y="176" text-anchor="middle" font-size="12" fill="#1A7F5C">万</text><rect x="340" y="130" width="50" height="60" rx="6" fill="#FFF8E8" stroke="#C9A227" stroke-width="2" /><text x="365" y="158" text-anchor="middle" font-size="22" font-weight="bold" fill="#1A7F5C">5</text><text x="365" y="176" text-anchor="middle" font-size="12" fill="#1A7F5C">万</text><rect x="420" y="130" width="50" height="60" rx="6" fill="#FFF8E8" stroke="#C9A227" stroke-width="2" /><text x="445" y="158" text-anchor="middle" font-size="22" font-weight="bold" fill="#1A7F5C">8</text><text x="445" y="176" text-anchor="middle" font-size="12" fill="#1A7F5C">万</text><text x="250" y="164" text-anchor="middle" font-size="12" fill="#C9A227" opacity="0.6">← 同线 →</text><line x1="30" y1="270" x2="530" y2="270" stroke="#1A7F5C" stroke-width="2" opacity="0.4" /><text x="15" y="274" text-anchor="middle" font-size="12" fill="#1A7F5C" font-weight="bold">线3</text><rect x="210" y="240" width="50" height="60" rx="6" fill="#F0FBF5" stroke="#1A7F5C" stroke-width="2" /><text x="235" y="268" text-anchor="middle" font-size="22" font-weight="bold" fill="#1A7F5C">3</text><text x="235" y="286" text-anchor="middle" font-size="12" fill="#1A7F5C">万</text><rect x="370" y="240" width="50" height="60" rx="6" fill="#F0FBF5" stroke="#1A7F5C" stroke-width="2" /><text x="395" y="268" text-anchor="middle" font-size="22" font-weight="bold" fill="#1A7F5C">6</text><text x="395" y="286" text-anchor="middle" font-size="12" fill="#1A7F5C">万</text><rect x="500" y="240" width="50" height="60" rx="6" fill="#F0FBF5" stroke="#1A7F5C" stroke-width="2" /><text x="525" y="268" text-anchor="middle" font-size="22" font-weight="bold" fill="#1A7F5C">9</text><text x="525" y="286" text-anchor="middle" font-size="12" fill="#1A7F5C">万</text><text x="320" y="274" text-anchor="middle" font-size="12" fill="#1A7F5C" opacity="0.6">← 同线 →</text><text x="280" y="320" text-anchor="middle" font-size="14" fill="#8B1A1A" font-weight="bold">别人打了 1 → 同线的 4、7 更安全（组顺子时互相"竞争"）</text></svg>