<svg width="600" height="400" viewBox="0 0 600 400" xmlns="http://www.w3.org/2000/svg"><rect x="60" y="20" width="60" height="75" rx="8" fill="#FFFEF8" stroke="#1A7F5C" stroke-width="3" /><text x="90" y="52" text-anchor="middle" font-size="28" font-weight="bold" fill="#1A7F5C">2</text><text x="90" y="72" text-anchor="middle" font-size="13" fill="#1A7F5C">万</text><text x="90" y="14" text-anchor="middle" font-size="11" fill="#1A7F5C" font-weight="bold">辐射到 1,3,4</text><rect x="480" y="20" width="60" height="75" rx="8" fill="#FFFEF8" stroke="#C9A227" stroke-width="3" /><text x="510" y="52" text-anchor="middle" font-size="28" font-weight="bold" fill="#C9A227">7</text><text x="510" y="72" text-anchor="middle" font-size="13" fill="#C9A227">万</text><text x="510" y="14" text-anchor="middle" font-size="11" fill="#C9A227" font-weight="bold">辐射到 5,6,8,9</text><path d="M 90 95 Q 50 180 40 320" fill="none" stroke="#1A7F5C" stroke-width="2" opacity="0.5" /><path d="M 90 95 Q 130 180 170 320" fill="none" stroke="#1A7F5C" stroke-width="2" opacity="0.5" /><path d="M 90 95 Q 160 180 235 320" fill="none" stroke="#1A7F5C" stroke-width="2" opacity="0.5" /><path d="M 510 95 Q 420 180 300 320" fill="none" stroke="#C9A227" stroke-width="2" opacity="0.5" /><path d="M 510 95 Q 450 180 365 320" fill="none" stroke="#C9A227" stroke-width="2" opacity="0.5" /><path d="M 510 95 Q 530 180 495 320" fill="none" stroke="#C9A227" stroke-width="2" opacity="0.5" /><path d="M 510 95 Q 560 180 560 320" fill="none" stroke="#C9A227" stroke-width="2" opacity="0.5" /><text x="300" y="170" text-anchor="middle" font-size="13" fill="#999">2 能组 123、234</text><text x="300" y="190" text-anchor="middle" font-size="13" fill="#999">7 能组 567、678、789</text><g key="0"><rect x="18" y="310" width="44" height="56" rx="6" fill="#F0FBF5" stroke="#1A7F5C" stroke-width="1.5" /><text x="40" y="338" text-anchor="middle" font-size="20" font-weight="bold" fill="#1A7F5C">1</text><text x="40" y="356" text-anchor="middle" font-size="11" fill="#1A7F5C">万</text><text x="40" y="385" text-anchor="middle" font-size="10" fill="#1A7F5C" font-weight="bold">✓ 已覆盖</text></g><g key="1"><rect x="83" y="310" width="44" height="56" rx="6" fill="#F0FBF5" stroke="#1A7F5C" stroke-width="1.5" /><text x="105" y="338" text-anchor="middle" font-size="20" font-weight="bold" fill="#1A7F5C">2</text><text x="105" y="356" text-anchor="middle" font-size="11" fill="#1A7F5C">万</text><text x="105" y="385" text-anchor="middle" font-size="10" fill="#1A7F5C" font-weight="bold">锚牌</text></g><g key="2"><rect x="148" y="310" width="44" height="56" rx="6" fill="#F0FBF5" stroke="#1A7F5C" stroke-width="1.5" /><text x="170" y="338" text-anchor="middle" font-size="20" font-weight="bold" fill="#1A7F5C">3</text><text x="170" y="356" text-anchor="middle" font-size="11" fill="#1A7F5C">万</text><text x="170" y="385" text-anchor="middle" font-size="10" fill="#1A7F5C" font-weight="bold">✓ 已覆盖</text></g><g key="3"><rect x="213" y="310" width="44" height="56" rx="6" fill="#F0FBF5" stroke="#1A7F5C" stroke-width="1.5" /><text x="235" y="338" text-anchor="middle" font-size="20" font-weight="bold" fill="#1A7F5C">4</text><text x="235" y="356" text-anchor="middle" font-size="11" fill="#1A7F5C">万</text><text x="235" y="385" text-anchor="middle" font-size="10" fill="#1A7F5C" font-weight="bold">✓ 已覆盖</text></g><g key="4"><rect x="278" y="310" width="44" height="56" rx="6" fill="#F0FBF5" stroke="#1A7F5C" stroke-width="1.5" /><text x="300" y="338" text-anchor="middle" font-size="20" font-weight="bold" fill="#1A7F5C">5</text><text x="300" y="356" text-anchor="middle" font-size="11" fill="#1A7F5C">万</text><text x="300" y="385" text-anchor="middle" font-size="10" fill="#1A7F5C" font-weight="bold">✓ 已覆盖</text></g><g key="5"><rect x="343" y="310" width="44" height="56" rx="6" fill="#F0FBF5" stroke="#1A7F5C" stroke-width="1.5" /><text x="365" y="338" text-anchor="middle" font-size="20" font-weight="bold" fill="#1A7F5C">6</text><text x="365" y="356" text-anchor="middle" font-size="11" fill="#1A7F5C">万</text><text x="365" y="385" text-anchor="middle" font-size="10" fill="#1A7F5C" font-weight="bold">✓ 已覆盖</text></g><g key="6"><rect x="408" y="310" width="44" height="56" rx="6" fill="#F0FBF5" stroke="#1A7F5C" stroke-width="1.5" /><text x="430" y="338" text-anchor="middle" font-size="20" font-weight="bold" fill="#1A7F5C">7</text><text x="430" y="356" text-anchor="middle" font-size="11" fill="#1A7F5C">万</text><text x="430" y="385" text-anchor="middle" font-size="10" fill="#1A7F5C" font-weight="bold">锚牌</text></g><g key="7"><rect x="473" y="310" width="44" height="56" rx="6" fill="#F0FBF5" stroke="#1A7F5C" stroke-width="1.5" /><text x="495" y="338" text-anchor="middle" font-size="20" font-weight="bold" fill="#1A7F5C">8</text><text x="495" y="356" text-anchor="middle" font-size="11" fill="#1A7F5C">万</text><text x="495" y="385" text-anchor="middle" font-size="10" fill="#1A7F5C" font-weight="bold">✓ 已覆盖</text></g><g key="8"><rect x="538" y="310" width="44" height="56" rx="6" fill="#F0FBF5" stroke="#1A7F5C" stroke-width="1.5" /><text x="560" y="338" text-anchor="middle" font-size="20" font-weight="bold" fill="#1A7F5C">9</text><text x="560" y="356" text-anchor="middle" font-size="11" fill="#1A7F5C">万</text><text x="560" y="385" text-anchor="middle" font-size="10" fill="#1A7F5C" font-weight="bold">✓ 已覆盖</text></g><text x="300" y="395" text-anchor="middle" font-size="14" font-weight="bold" fill="#1A7F5C">两张牌 → 覆盖 1-9 全部数字！这就是"辐射到极致"</text></svg>